{
	"patcher" : 	{
		"fileversion" : 1,
		"appversion" : 		{
			"major" : 7,
			"minor" : 3,
			"revision" : 5,
			"architecture" : "x64",
			"modernui" : 1
		}
,
		"rect" : [ 100.0, 45.0, 741.0, 721.0 ],
		"bglocked" : 0,
		"openinpresentation" : 0,
		"default_fontsize" : 13.0,
		"default_fontface" : 0,
		"default_fontname" : "Arial",
		"gridonopen" : 2,
		"gridsize" : [ 15.0, 15.0 ],
		"gridsnaponopen" : 1,
		"objectsnaponopen" : 1,
		"statusbarvisible" : 2,
		"toolbarvisible" : 1,
		"lefttoolbarpinned" : 0,
		"toptoolbarpinned" : 2,
		"righttoolbarpinned" : 0,
		"bottomtoolbarpinned" : 0,
		"toolbars_unpinned_last_save" : 2,
		"tallnewobj" : 0,
		"boxanimatetime" : 100,
		"enablehscroll" : 1,
		"enablevscroll" : 1,
		"devicewidth" : 0.0,
		"description" : "",
		"digest" : "",
		"tags" : "",
		"style" : "",
		"subpatcher_template" : "<none>",
		"showrootpatcherontab" : 0,
		"showontab" : 0,
		"boxes" : [ 			{
				"box" : 				{
					"id" : "obj-3",
					"maxclass" : "newobj",
					"numinlets" : 0,
					"numoutlets" : 0,
					"patcher" : 					{
						"fileversion" : 1,
						"appversion" : 						{
							"major" : 7,
							"minor" : 3,
							"revision" : 5,
							"architecture" : "x64",
							"modernui" : 1
						}
,
						"rect" : [ 100.0, 71.0, 741.0, 695.0 ],
						"bglocked" : 1,
						"openinpresentation" : 0,
						"default_fontsize" : 13.0,
						"default_fontface" : 0,
						"default_fontname" : "Arial",
						"gridonopen" : 2,
						"gridsize" : [ 15.0, 15.0 ],
						"gridsnaponopen" : 1,
						"objectsnaponopen" : 1,
						"statusbarvisible" : 2,
						"toolbarvisible" : 1,
						"lefttoolbarpinned" : 0,
						"toptoolbarpinned" : 2,
						"righttoolbarpinned" : 0,
						"bottomtoolbarpinned" : 0,
						"toolbars_unpinned_last_save" : 0,
						"tallnewobj" : 0,
						"boxanimatetime" : 200,
						"enablehscroll" : 1,
						"enablevscroll" : 1,
						"devicewidth" : 0.0,
						"description" : "",
						"digest" : "",
						"tags" : "",
						"style" : "",
						"subpatcher_template" : "<none>",
						"showontab" : 1,
						"boxes" : [ 							{
								"box" : 								{
									"fontface" : 0,
									"fontname" : "Arial",
									"fontsize" : 13.0,
									"id" : "obj-15",
									"linecount" : 2,
									"maxclass" : "comment",
									"numinlets" : 1,
									"numoutlets" : 0,
									"patching_rect" : [ 534.0, 164.0, 205.0, 36.0 ],
									"style" : "",
									"text" : "output buffer / [time multiplier = 1] / input buffer 1 2 3 etc ......",
									"textcolor" : [ 0.5, 0.5, 0.5, 1.0 ]
								}

							}
, 							{
								"box" : 								{
									"fontface" : 0,
									"fontname" : "Arial",
									"fontsize" : 13.0,
									"id" : "obj-10",
									"maxclass" : "comment",
									"numinlets" : 1,
									"numoutlets" : 0,
									"patching_rect" : [ 408.0, 139.0, 310.214966, 21.0 ],
									"style" : "",
									"text" : "output buffer / input buffer 1 2 3 etc ......",
									"textcolor" : [ 0.5, 0.5, 0.5, 1.0 ]
								}

							}
, 							{
								"box" : 								{
									"fontface" : 0,
									"fontname" : "Arial",
									"fontsize" : 13.0,
									"id" : "obj-49",
									"maxclass" : "message",
									"numinlets" : 2,
									"numoutlets" : 1,
									"outlettype" : [ "" ],
									"patching_rect" : [ 508.214966, 338.0, 53.0, 23.0 ],
									"style" : "",
									"text" : "replace"
								}

							}
, 							{
								"box" : 								{
									"fontface" : 0,
									"fontname" : "Arial",
									"fontsize" : 13.0,
									"id" : "obj-48",
									"maxclass" : "newobj",
									"numinlets" : 1,
									"numoutlets" : 2,
									"outlettype" : [ "float", "bang" ],
									"patching_rect" : [ 508.214966, 378.0, 212.0, 23.0 ],
									"style" : "",
									"text" : "buffer~ avg2 \"St Pauls 2-2.wav\" - 1"
								}

							}
, 							{
								"box" : 								{
									"bubble" : 1,
									"bubblepoint" : 0.25,
									"bubbleside" : 2,
									"fontface" : 0,
									"fontname" : "Arial",
									"fontsize" : 13.0,
									"id" : "obj-31",
									"maxclass" : "comment",
									"numinlets" : 1,
									"numoutlets" : 0,
									"patching_rect" : [ 598.214966, 242.0, 120.0, 40.0 ],
									"style" : "",
									"text" : "Load input buffers",
									"textjustification" : 1
								}

							}
, 							{
								"box" : 								{
									"fontface" : 0,
									"fontname" : "Arial",
									"fontsize" : 13.0,
									"id" : "obj-32",
									"maxclass" : "message",
									"numinlets" : 2,
									"numoutlets" : 1,
									"outlettype" : [ "" ],
									"patching_rect" : [ 508.214966, 259.0, 53.0, 23.0 ],
									"style" : "",
									"text" : "replace"
								}

							}
, 							{
								"box" : 								{
									"fontface" : 0,
									"fontname" : "Arial",
									"fontsize" : 13.0,
									"id" : "obj-28",
									"maxclass" : "newobj",
									"numinlets" : 1,
									"numoutlets" : 2,
									"outlettype" : [ "float", "bang" ],
									"patching_rect" : [ 508.214966, 299.0, 208.0, 23.0 ],
									"style" : "",
									"text" : "buffer~ avg1 \"St Pauls 1-1.wav\" -1"
								}

							}
, 							{
								"box" : 								{
									"fontface" : 0,
									"fontname" : "Arial",
									"fontsize" : 13.0,
									"id" : "obj-4",
									"maxclass" : "comment",
									"numinlets" : 1,
									"numoutlets" : 0,
									"patching_rect" : [ 614.359924, 484.5, 102.5, 21.0 ],
									"style" : "",
									"text" : "Output Buffer",
									"textcolor" : [ 0.2, 0.2, 0.2, 1.0 ],
									"textjustification" : 2
								}

							}
, 							{
								"box" : 								{
									"fontface" : 0,
									"fontname" : "Arial",
									"fontsize" : 13.0,
									"id" : "obj-3",
									"maxclass" : "comment",
									"numinlets" : 1,
									"numoutlets" : 0,
									"patching_rect" : [ 504.214966, 484.5, 97.0, 21.0 ],
									"style" : "",
									"text" : "Display Length",
									"textcolor" : [ 0.2, 0.2, 0.2, 1.0 ]
								}

							}
, 							{
								"box" : 								{
									"fontface" : 0,
									"fontname" : "Arial",
									"fontsize" : 13.0,
									"id" : "obj-6",
									"maxclass" : "comment",
									"numinlets" : 1,
									"numoutlets" : 0,
									"patching_rect" : [ 401.0, 484.5, 85.0, 21.0 ],
									"style" : "",
									"text" : "Display Start",
									"textcolor" : [ 0.2, 0.2, 0.2, 1.0 ]
								}

							}
, 							{
								"box" : 								{
									"fontface" : 0,
									"fontname" : "Arial",
									"fontsize" : 13.0,
									"format" : 6,
									"id" : "obj-7",
									"maxclass" : "flonum",
									"numinlets" : 1,
									"numoutlets" : 2,
									"outlettype" : [ "", "bang" ],
									"parameter_enable" : 0,
									"patching_rect" : [ 508.214966, 507.5, 59.0, 23.0 ],
									"style" : ""
								}

							}
, 							{
								"box" : 								{
									"fontface" : 0,
									"fontname" : "Arial",
									"fontsize" : 13.0,
									"format" : 6,
									"id" : "obj-8",
									"maxclass" : "flonum",
									"numinlets" : 1,
									"numoutlets" : 2,
									"outlettype" : [ "", "bang" ],
									"parameter_enable" : 0,
									"patching_rect" : [ 405.0, 507.5, 59.0, 23.0 ],
									"style" : ""
								}

							}
, 							{
								"box" : 								{
									"allowdrag" : 0,
									"buffername" : "avgout",
									"fontsize" : 13.0,
									"id" : "obj-30",
									"maxclass" : "waveform~",
									"numinlets" : 5,
									"numoutlets" : 6,
									"outlettype" : [ "float", "float", "float", "float", "list", "" ],
									"patching_rect" : [ 405.0, 532.5, 311.859924, 134.0 ],
									"style" : ""
								}

							}
, 							{
								"box" : 								{
									"amprange" : [ -80.0, 50.0 ],
									"color" : [ 0.0, 0.0, 0.0, 1.0 ],
									"color2" : [ 1.0, 0.0, 0.0, 0.6 ],
									"color3" : [ 0.0, 1.0, 0.0, 0.6 ],
									"fontface" : 0,
									"fontname" : "Arial",
									"fontsize" : 12.0,
									"id" : "obj-52",
									"maxclass" : "spectrumdraw~",
									"numinlets" : 4,
									"numoutlets" : 1,
									"outlettype" : [ "" ],
									"patching_rect" : [ 26.0, 513.0, 362.0, 160.0 ],
									"thickness" : 2.5
								}

							}
, 							{
								"box" : 								{
									"fontname" : "Arial",
									"fontsize" : 13.0,
									"id" : "obj-51",
									"ignoreclick" : 1,
									"maxclass" : "message",
									"numinlets" : 2,
									"numoutlets" : 1,
									"outlettype" : [ "" ],
									"patching_rect" : [ 26.0, 459.5, 206.0, 23.0 ],
									"style" : "",
									"text" : "set avgout, set avg1 2, set avg2 3"
								}

							}
, 							{
								"box" : 								{
									"id" : "obj-5",
									"maxclass" : "button",
									"numinlets" : 1,
									"numoutlets" : 1,
									"outlettype" : [ "bang" ],
									"patching_rect" : [ 26.0, 418.0, 24.0, 24.0 ],
									"style" : ""
								}

							}
, 							{
								"box" : 								{
									"id" : "obj-1",
									"maxclass" : "newobj",
									"numinlets" : 1,
									"numoutlets" : 1,
									"outlettype" : [ "bang" ],
									"patching_rect" : [ 26.0, 378.0, 72.0, 23.0 ],
									"style" : "",
									"text" : "iraverage~"
								}

							}
, 							{
								"box" : 								{
									"bubble" : 1,
									"fontface" : 0,
									"fontname" : "Arial",
									"fontsize" : 13.0,
									"id" : "obj-18",
									"maxclass" : "comment",
									"numinlets" : 1,
									"numoutlets" : 0,
									"patching_rect" : [ 241.0, 337.0, 147.0, 25.0 ],
									"style" : "",
									"text" : "Linear Phase Output"
								}

							}
, 							{
								"box" : 								{
									"bubble" : 1,
									"fontface" : 0,
									"fontname" : "Arial",
									"fontsize" : 13.0,
									"id" : "obj-19",
									"maxclass" : "comment",
									"numinlets" : 1,
									"numoutlets" : 0,
									"patching_rect" : [ 218.0, 297.0, 132.0, 25.0 ],
									"style" : "",
									"text" : "Min Phase Output"
								}

							}
, 							{
								"box" : 								{
									"fontface" : 0,
									"fontname" : "Arial",
									"fontsize" : 13.0,
									"id" : "obj-12",
									"maxclass" : "message",
									"numinlets" : 2,
									"numoutlets" : 1,
									"outlettype" : [ "" ],
									"patching_rect" : [ 146.0, 298.0, 70.0, 23.0 ],
									"style" : "",
									"text" : "phase min"
								}

							}
, 							{
								"box" : 								{
									"fontface" : 0,
									"fontname" : "Arial",
									"fontsize" : 13.0,
									"id" : "obj-9",
									"maxclass" : "message",
									"numinlets" : 2,
									"numoutlets" : 1,
									"outlettype" : [ "" ],
									"patching_rect" : [ 176.0, 338.0, 63.0, 23.0 ],
									"style" : "",
									"text" : "phase lin"
								}

							}
, 							{
								"box" : 								{
									"bubble" : 1,
									"fontface" : 0,
									"fontname" : "Arial",
									"fontsize" : 13.0,
									"id" : "obj-57",
									"maxclass" : "comment",
									"numinlets" : 1,
									"numoutlets" : 0,
									"patching_rect" : [ 243.0, 257.0, 111.0, 25.0 ],
									"style" : "",
									"text" : "Smoothing On"
								}

							}
, 							{
								"box" : 								{
									"bubble" : 1,
									"fontface" : 0,
									"fontname" : "Arial",
									"fontsize" : 13.0,
									"id" : "obj-56",
									"maxclass" : "comment",
									"numinlets" : 1,
									"numoutlets" : 0,
									"patching_rect" : [ 184.0, 217.0, 110.0, 25.0 ],
									"style" : "",
									"text" : "Smoothing Off"
								}

							}
, 							{
								"box" : 								{
									"fontface" : 0,
									"fontname" : "Arial",
									"fontsize" : 13.0,
									"id" : "obj-55",
									"maxclass" : "message",
									"numinlets" : 2,
									"numoutlets" : 1,
									"outlettype" : [ "" ],
									"patching_rect" : [ 116.0, 258.0, 125.0, 23.0 ],
									"style" : "",
									"text" : "smoothamount 0.08"
								}

							}
, 							{
								"box" : 								{
									"fontface" : 0,
									"fontname" : "Arial",
									"fontsize" : 13.0,
									"id" : "obj-54",
									"maxclass" : "message",
									"numinlets" : 2,
									"numoutlets" : 1,
									"outlettype" : [ "" ],
									"patching_rect" : [ 86.0, 218.0, 96.0, 23.0 ],
									"style" : "",
									"text" : "smoothamount"
								}

							}
, 							{
								"box" : 								{
									"bubble" : 1,
									"fontface" : 0,
									"fontname" : "Arial",
									"fontsize" : 13.0,
									"id" : "obj-26",
									"maxclass" : "comment",
									"numinlets" : 1,
									"numoutlets" : 0,
									"patching_rect" : [ 220.0, 169.5, 312.0, 25.0 ],
									"style" : "",
									"text" : "process message (freq domain w/ opt smoothing)"
								}

							}
, 							{
								"box" : 								{
									"bubble" : 1,
									"fontface" : 0,
									"fontname" : "Arial",
									"fontsize" : 13.0,
									"id" : "obj-13",
									"maxclass" : "comment",
									"numinlets" : 1,
									"numoutlets" : 0,
									"patching_rect" : [ 192.0, 137.0, 214.0, 25.0 ],
									"style" : "",
									"text" : "average message (time domain)"
								}

							}
, 							{
								"box" : 								{
									"fontface" : 0,
									"fontname" : "Arial",
									"fontsize" : 13.0,
									"id" : "obj-27",
									"maxclass" : "comment",
									"numinlets" : 1,
									"numoutlets" : 0,
									"patching_rect" : [ 52.0, 419.0, 222.0, 21.0 ],
									"style" : "",
									"text" : "Bang on successful completion",
									"textcolor" : [ 0.2, 0.2, 0.2, 1.0 ]
								}

							}
, 							{
								"box" : 								{
									"fontface" : 0,
									"fontname" : "Arial",
									"fontsize" : 13.0,
									"id" : "obj-23",
									"maxclass" : "message",
									"numinlets" : 2,
									"numoutlets" : 1,
									"outlettype" : [ "" ],
									"patching_rect" : [ 56.0, 178.0, 162.0, 23.0 ],
									"style" : "",
									"text" : "process avgout avg1 avg2"
								}

							}
, 							{
								"box" : 								{
									"fontface" : 0,
									"fontname" : "Arial",
									"fontsize" : 13.0,
									"id" : "obj-17",
									"maxclass" : "message",
									"numinlets" : 2,
									"numoutlets" : 1,
									"outlettype" : [ "" ],
									"patching_rect" : [ 26.0, 138.0, 164.0, 23.0 ],
									"style" : "",
									"text" : "average avgout avg1 avg2"
								}

							}
, 							{
								"box" : 								{
									"fontname" : "Arial",
									"fontsize" : 13.0,
									"id" : "obj-58",
									"maxclass" : "comment",
									"numinlets" : 1,
									"numoutlets" : 0,
									"patching_rect" : [ 26.0, 484.5, 362.0, 21.0 ],
									"style" : "",
									"text" : "Red - in 1 / Green - In 2 / Black - Output",
									"textcolor" : [ 0.2, 0.2, 0.2, 1.0 ],
									"textjustification" : 1
								}

							}
, 							{
								"box" : 								{
									"fontface" : 0,
									"fontname" : "Arial",
									"fontsize" : 13.0,
									"id" : "obj-29",
									"maxclass" : "newobj",
									"numinlets" : 1,
									"numoutlets" : 2,
									"outlettype" : [ "float", "bang" ],
									"patching_rect" : [ 611.859924, 507.5, 105.0, 23.0 ],
									"style" : "",
									"text" : "buffer~ avgout 1"
								}

							}
, 							{
								"box" : 								{
									"background" : 1,
									"bgmode" : 0,
									"border" : 0,
									"clickthrough" : 0,
									"enablehscroll" : 0,
									"enablevscroll" : 0,
									"id" : "obj-14",
									"lockeddragscroll" : 0,
									"maxclass" : "bpatcher",
									"name" : "hirt.credits.mini.maxpat",
									"numinlets" : 0,
									"numoutlets" : 0,
									"offset" : [ 0.0, 0.0 ],
									"patching_rect" : [ 309.859924, 11.0, 321.140076, 54.0 ],
									"viewvisibility" : 1
								}

							}
, 							{
								"box" : 								{
									"background" : 1,
									"border" : 0,
									"filename" : "helpdetails.js",
									"id" : "obj-2",
									"ignoreclick" : 1,
									"jsarguments" : [ "iraverage~" ],
									"maxclass" : "jsui",
									"numinlets" : 1,
									"numoutlets" : 1,
									"outlettype" : [ "" ],
									"parameter_enable" : 0,
									"patching_rect" : [ 11.0, 11.0, 620.0, 125.0 ]
								}

							}
 ],
						"lines" : [ 							{
								"patchline" : 								{
									"destination" : [ "obj-5", 0 ],
									"source" : [ "obj-1", 0 ]
								}

							}
, 							{
								"patchline" : 								{
									"destination" : [ "obj-1", 0 ],
									"source" : [ "obj-12", 0 ]
								}

							}
, 							{
								"patchline" : 								{
									"destination" : [ "obj-1", 0 ],
									"source" : [ "obj-17", 0 ]
								}

							}
, 							{
								"patchline" : 								{
									"destination" : [ "obj-1", 0 ],
									"source" : [ "obj-23", 0 ]
								}

							}
, 							{
								"patchline" : 								{
									"destination" : [ "obj-28", 0 ],
									"source" : [ "obj-32", 0 ]
								}

							}
, 							{
								"patchline" : 								{
									"destination" : [ "obj-48", 0 ],
									"source" : [ "obj-49", 0 ]
								}

							}
, 							{
								"patchline" : 								{
									"destination" : [ "obj-51", 0 ],
									"source" : [ "obj-5", 0 ]
								}

							}
, 							{
								"patchline" : 								{
									"destination" : [ "obj-52", 0 ],
									"source" : [ "obj-51", 0 ]
								}

							}
, 							{
								"patchline" : 								{
									"destination" : [ "obj-1", 0 ],
									"source" : [ "obj-54", 0 ]
								}

							}
, 							{
								"patchline" : 								{
									"destination" : [ "obj-1", 0 ],
									"source" : [ "obj-55", 0 ]
								}

							}
, 							{
								"patchline" : 								{
									"destination" : [ "obj-30", 1 ],
									"hidden" : 1,
									"source" : [ "obj-7", 0 ]
								}

							}
, 							{
								"patchline" : 								{
									"destination" : [ "obj-30", 0 ],
									"hidden" : 1,
									"source" : [ "obj-8", 0 ]
								}

							}
, 							{
								"patchline" : 								{
									"destination" : [ "obj-1", 0 ],
									"source" : [ "obj-9", 0 ]
								}

							}
 ]
					}
,
					"patching_rect" : [ 10.0, 85.0, 52.0, 23.0 ],
					"saved_object_attributes" : 					{
						"description" : "",
						"digest" : "",
						"fontsize" : 13.0,
						"globalpatchername" : "",
						"style" : "",
						"tags" : ""
					}
,
					"style" : "",
					"text" : "p basic",
					"varname" : "basic_tab"
				}

			}
, 			{
				"box" : 				{
					"id" : "obj-1",
					"maxclass" : "newobj",
					"numinlets" : 1,
					"numoutlets" : 1,
					"outlettype" : [ "" ],
					"patching_rect" : [ 403.0, 85.0, 184.0, 23.0 ],
					"saved_object_attributes" : 					{
						"filename" : "hirt.helpstarter.js",
						"parameter_enable" : 0
					}
,
					"style" : "",
					"text" : "js hirt.helpstarter.js iraverage~"
				}

			}
, 			{
				"box" : 				{
					"border" : 0,
					"filename" : "helpname.js",
					"id" : "obj-4",
					"ignoreclick" : 1,
					"jsarguments" : [ "iraverage~" ],
					"maxclass" : "jsui",
					"numinlets" : 1,
					"numoutlets" : 1,
					"outlettype" : [ "" ],
					"parameter_enable" : 0,
					"patching_rect" : [ 10.0, 10.0, 225.123596, 57.567627 ]
				}

			}
, 			{
				"box" : 				{
					"id" : "obj-5",
					"maxclass" : "newobj",
					"numinlets" : 0,
					"numoutlets" : 0,
					"patcher" : 					{
						"fileversion" : 1,
						"appversion" : 						{
							"major" : 7,
							"minor" : 3,
							"revision" : 5,
							"architecture" : "x64",
							"modernui" : 1
						}
,
						"rect" : [ 0.0, 26.0, 741.0, 695.0 ],
						"bglocked" : 0,
						"openinpresentation" : 0,
						"default_fontsize" : 12.0,
						"default_fontface" : 0,
						"default_fontname" : "Arial",
						"gridonopen" : 1,
						"gridsize" : [ 15.0, 15.0 ],
						"gridsnaponopen" : 1,
						"objectsnaponopen" : 1,
						"statusbarvisible" : 2,
						"toolbarvisible" : 1,
						"lefttoolbarpinned" : 0,
						"toptoolbarpinned" : 0,
						"righttoolbarpinned" : 0,
						"bottomtoolbarpinned" : 0,
						"toolbars_unpinned_last_save" : 0,
						"tallnewobj" : 0,
						"boxanimatetime" : 200,
						"enablehscroll" : 1,
						"enablevscroll" : 1,
						"devicewidth" : 0.0,
						"description" : "",
						"digest" : "",
						"tags" : "",
						"style" : "",
						"subpatcher_template" : "<none>",
						"showontab" : 1,
						"boxes" : [  ],
						"lines" : [  ]
					}
,
					"patching_rect" : [ 190.123596, 85.0, 45.0, 23.0 ],
					"saved_object_attributes" : 					{
						"description" : "",
						"digest" : "",
						"globalpatchername" : "",
						"style" : "",
						"tags" : ""
					}
,
					"style" : "",
					"text" : "p ?",
					"varname" : "q_tab"
				}

			}
 ],
		"lines" : [  ],
		"dependency_cache" : [ 			{
				"name" : "helpname.js",
				"bootpath" : "C74:/help/resources",
				"type" : "TEXT",
				"implicit" : 1
			}
, 			{
				"name" : "hirt.helpstarter.js",
				"bootpath" : "~/Documents/Max 7/Packages/HISSTools Impulse Response Toolbox (HIRT)/javascript",
				"patcherrelativepath" : "../javascript",
				"type" : "TEXT",
				"implicit" : 1
			}
, 			{
				"name" : "helpdetails.js",
				"bootpath" : "C74:/help/resources",
				"type" : "TEXT",
				"implicit" : 1
			}
, 			{
				"name" : "hirt.credits.mini.maxpat",
				"bootpath" : "~/Documents/Max 7/Packages/HISSTools Impulse Response Toolbox (HIRT)/misc/HIRT_resources",
				"patcherrelativepath" : "../misc/HIRT_resources",
				"type" : "JSON",
				"implicit" : 1
			}
, 			{
				"name" : "HIRT_HISSTools_Logo.png",
				"bootpath" : "~/Documents/Max 7/Packages/HISSTools Impulse Response Toolbox (HIRT)/misc/HIRT_image",
				"patcherrelativepath" : "../misc/HIRT_image",
				"type" : "PNG ",
				"implicit" : 1
			}
, 			{
				"name" : "iraverage~.mxo",
				"type" : "iLaX"
			}
, 			{
				"name" : "spectrumdraw~.mxo",
				"type" : "iLaX"
			}
 ],
		"autosave" : 0,
		"toolbaradditions" : [ "audiosolo", "audiomute", "transport" ],
		"toolbarexclusions" : [ "browsevizzie", "browsebeap" ],
		"bgfillcolor_type" : "gradient",
		"bgfillcolor_color1" : [ 0.376471, 0.384314, 0.4, 1.0 ],
		"bgfillcolor_color2" : [ 0.290196, 0.309804, 0.301961, 1.0 ],
		"bgfillcolor_color" : [ 0.290196, 0.309804, 0.301961, 1.0 ],
		"bgfillcolor_angle" : 270.0,
		"bgfillcolor_proportion" : 0.39
	}

}
