{
	"patcher" : 	{
		"fileversion" : 1,
		"appversion" : 		{
			"major" : 8,
			"minor" : 2,
			"revision" : 1,
			"architecture" : "x64",
			"modernui" : 1
		}
,
		"classnamespace" : "box",
		"rect" : [ 0.0, 45.0, 1280.0, 645.0 ],
		"bglocked" : 1,
		"openinpresentation" : 1,
		"default_fontsize" : 12.0,
		"default_fontface" : 0,
		"default_fontname" : "Arial",
		"gridonopen" : 2,
		"gridsize" : [ 15.0, 15.0 ],
		"gridsnaponopen" : 1,
		"objectsnaponopen" : 1,
		"statusbarvisible" : 0,
		"toolbarvisible" : 1,
		"lefttoolbarpinned" : 2,
		"toptoolbarpinned" : 2,
		"righttoolbarpinned" : 2,
		"bottomtoolbarpinned" : 1,
		"toolbars_unpinned_last_save" : 7,
		"tallnewobj" : 0,
		"boxanimatetime" : 200,
		"enablehscroll" : 1,
		"enablevscroll" : 1,
		"devicewidth" : 0.0,
		"description" : "",
		"digest" : "",
		"tags" : "",
		"style" : "",
		"subpatcher_template" : "",
		"assistshowspatchername" : 0,
		"boxes" : [ 			{
				"box" : 				{
					"id" : "obj-22",
					"maxclass" : "newobj",
					"numinlets" : 1,
					"numoutlets" : 1,
					"outlettype" : [ "" ],
					"patching_rect" : [ 197.0, 292.5, 74.0, 22.0 ],
					"text" : "prepend set"
				}

			}
, 			{
				"box" : 				{
					"id" : "obj-24",
					"maxclass" : "newobj",
					"numinlets" : 1,
					"numoutlets" : 1,
					"outlettype" : [ "clear" ],
					"patching_rect" : [ 148.0, 292.5, 43.0, 22.0 ],
					"text" : "t clear"
				}

			}
, 			{
				"box" : 				{
					"id" : "obj-25",
					"maxclass" : "newobj",
					"numinlets" : 2,
					"numoutlets" : 2,
					"outlettype" : [ "", "" ],
					"patching_rect" : [ 148.0, 253.5, 68.0, 22.0 ],
					"text" : "route none"
				}

			}
, 			{
				"box" : 				{
					"id" : "obj-27",
					"maxclass" : "newobj",
					"numinlets" : 2,
					"numoutlets" : 2,
					"outlettype" : [ "", "" ],
					"patching_rect" : [ 196.5, 551.5, 68.0, 22.0 ],
					"text" : "route bang"
				}

			}
, 			{
				"box" : 				{
					"id" : "obj-30",
					"maxclass" : "newobj",
					"numinlets" : 2,
					"numoutlets" : 2,
					"outlettype" : [ "", "" ],
					"patching_rect" : [ 196.5, 512.0, 61.0, 22.0 ],
					"text" : "route text"
				}

			}
, 			{
				"box" : 				{
					"bangmode" : 1,
					"bgcolor" : [ 0.290196, 0.309804, 0.301961, 0.0 ],
					"border" : 1.0,
					"bordercolor" : [ 0.0, 0.0, 0.0, 1.0 ],
					"clickmode" : 1,
					"id" : "obj-31",
					"maxclass" : "textedit",
					"numinlets" : 1,
					"numoutlets" : 4,
					"outlettype" : [ "", "int", "", "" ],
					"parameter_enable" : 0,
					"parameter_mappable" : 0,
					"patching_rect" : [ 196.5, 346.5, 362.5, 36.0 ],
					"rounded" : 4.0,
					"varname" : "Drop Path B"
				}

			}
, 			{
				"box" : 				{
					"id" : "obj-32",
					"maxclass" : "newobj",
					"numinlets" : 1,
					"numoutlets" : 1,
					"outlettype" : [ "" ],
					"patching_rect" : [ 245.5, 590.5, 74.0, 22.0 ],
					"text" : "prepend set"
				}

			}
, 			{
				"box" : 				{
					"id" : "obj-29",
					"maxclass" : "newobj",
					"numinlets" : 1,
					"numoutlets" : 1,
					"outlettype" : [ "" ],
					"patching_rect" : [ 93.0, 405.0, 74.0, 22.0 ],
					"text" : "prepend set"
				}

			}
, 			{
				"box" : 				{
					"hidden" : 1,
					"id" : "obj-26",
					"maxclass" : "newobj",
					"numinlets" : 0,
					"numoutlets" : 1,
					"outlettype" : [ "" ],
					"patching_rect" : [ 794.0, 253.5, 128.0, 22.0 ],
					"text" : "r #1clearfilepath"
				}

			}
, 			{
				"box" : 				{
					"id" : "obj-15",
					"maxclass" : "newobj",
					"numinlets" : 1,
					"numoutlets" : 1,
					"outlettype" : [ "clear" ],
					"patching_rect" : [ 30.0, 292.5, 43.0, 22.0 ],
					"text" : "t clear"
				}

			}
, 			{
				"box" : 				{
					"id" : "obj-18",
					"maxclass" : "newobj",
					"numinlets" : 2,
					"numoutlets" : 2,
					"outlettype" : [ "", "" ],
					"patching_rect" : [ 30.0, 253.5, 68.0, 22.0 ],
					"text" : "route none"
				}

			}
, 			{
				"box" : 				{
					"id" : "obj-19",
					"maxclass" : "newobj",
					"numinlets" : 2,
					"numoutlets" : 2,
					"outlettype" : [ "", "" ],
					"patching_rect" : [ 92.5, 551.5, 68.0, 22.0 ],
					"text" : "route bang"
				}

			}
, 			{
				"box" : 				{
					"id" : "obj-20",
					"maxclass" : "newobj",
					"numinlets" : 2,
					"numoutlets" : 2,
					"outlettype" : [ "", "" ],
					"patching_rect" : [ 92.5, 512.0, 61.0, 22.0 ],
					"text" : "route text"
				}

			}
, 			{
				"box" : 				{
					"bangmode" : 1,
					"bgcolor" : [ 0.290196, 0.309804, 0.301961, 0.0 ],
					"border" : 1.0,
					"bordercolor" : [ 0.0, 0.0, 0.0, 1.0 ],
					"clickmode" : 1,
					"id" : "obj-21",
					"maxclass" : "textedit",
					"numinlets" : 1,
					"numoutlets" : 4,
					"outlettype" : [ "", "int", "", "" ],
					"parameter_enable" : 0,
					"parameter_mappable" : 0,
					"patching_rect" : [ 92.5, 459.0, 362.5, 36.0 ],
					"rounded" : 4.0,
					"varname" : "Drop Path A"
				}

			}
, 			{
				"box" : 				{
					"id" : "obj-23",
					"maxclass" : "newobj",
					"numinlets" : 1,
					"numoutlets" : 1,
					"outlettype" : [ "" ],
					"patching_rect" : [ 141.5, 590.5, 74.0, 22.0 ],
					"text" : "prepend set"
				}

			}
, 			{
				"box" : 				{
					"hidden" : 1,
					"id" : "obj-28",
					"maxclass" : "comment",
					"numinlets" : 1,
					"numoutlets" : 0,
					"patching_rect" : [ 794.0, 277.5, 128.0, 20.0 ],
					"text" : "!! ignore - dev only !!",
					"textjustification" : 1
				}

			}
, 			{
				"box" : 				{
					"color" : [ 0.541176, 0.815686, 0.913725, 1.0 ],
					"id" : "obj-14",
					"maxclass" : "newobj",
					"numinlets" : 1,
					"numoutlets" : 3,
					"outlettype" : [ "", "", "" ],
					"patching_rect" : [ 288.0, 292.5, 253.0, 22.0 ],
					"restore" : [ "<empty>" ],
					"saved_object_attributes" : 					{
						"parameter_enable" : 0,
						"parameter_mappable" : 0
					}
,
					"text" : "pattr \"Current File B\" @autorestore 0 @dirty 0",
					"varname" : "Current File B"
				}

			}
, 			{
				"box" : 				{
					"color" : [ 0.541176, 0.815686, 0.913725, 1.0 ],
					"id" : "obj-13",
					"maxclass" : "newobj",
					"numinlets" : 1,
					"numoutlets" : 3,
					"outlettype" : [ "", "", "" ],
					"patching_rect" : [ 186.0, 405.0, 252.0, 22.0 ],
					"restore" : [ "<empty>" ],
					"saved_object_attributes" : 					{
						"parameter_enable" : 0,
						"parameter_mappable" : 0
					}
,
					"text" : "pattr \"Current File A\" @autorestore 0 @dirty 0",
					"varname" : "Current File A"
				}

			}
, 			{
				"box" : 				{
					"hidden" : 1,
					"id" : "obj-12",
					"maxclass" : "comment",
					"numinlets" : 1,
					"numoutlets" : 0,
					"patching_rect" : [ 110.0, 152.5, 201.0, 20.0 ],
					"text" : "should we disable @decodemode ?",
					"textjustification" : 1
				}

			}
, 			{
				"box" : 				{
					"annotation" : "",
					"bordercolor" : [ 0.27451, 0.32549, 0.4, 0.0 ],
					"decodemode" : 1,
					"focusbordercolor" : [ 0.0, 0.019608, 0.078431, 0.0 ],
					"fontsize" : 12.0,
					"id" : "obj-35",
					"legend" : "Drop IRs",
					"maxclass" : "live.drop",
					"numinlets" : 1,
					"numoutlets" : 2,
					"outlettype" : [ "", "" ],
					"parameter_enable" : 1,
					"parameter_mappable" : 0,
					"patching_rect" : [ 110.0, 135.5, 87.0, 54.0 ],
					"presentation" : 1,
					"presentation_rect" : [ 2.0, 2.0, 356.0, 148.0 ],
					"saved_attribute_attributes" : 					{
						"bordercolor" : 						{
							"expression" : ""
						}
,
						"textcolor" : 						{
							"expression" : ""
						}
,
						"focusbordercolor" : 						{
							"expression" : ""
						}
,
						"valueof" : 						{
							"parameter_initial" : [ "" ],
							"parameter_invisible" : 1,
							"parameter_longname" : "Drop A",
							"parameter_order" : 3,
							"parameter_shortname" : "live.drop",
							"parameter_type" : 4
						}

					}
,
					"textcolor" : [ 0.0, 0.019608, 0.078431, 0.0 ],
					"varname" : "Drop A"
				}

			}
, 			{
				"box" : 				{
					"annotation" : "",
					"bordercolor" : [ 0.27451, 0.32549, 0.4, 0.0 ],
					"decodemode" : 1,
					"focusbordercolor" : [ 0.0, 0.019608, 0.078431, 0.0 ],
					"fontsize" : 12.0,
					"id" : "obj-65",
					"legend" : "Drop IRs",
					"maxclass" : "live.drop",
					"numinlets" : 1,
					"numoutlets" : 2,
					"outlettype" : [ "", "" ],
					"parameter_enable" : 1,
					"parameter_mappable" : 0,
					"patching_rect" : [ 224.0, 135.5, 87.0, 54.0 ],
					"presentation" : 1,
					"presentation_rect" : [ 363.0, 2.0, 356.0, 148.0 ],
					"saved_attribute_attributes" : 					{
						"bordercolor" : 						{
							"expression" : ""
						}
,
						"textcolor" : 						{
							"expression" : ""
						}
,
						"focusbordercolor" : 						{
							"expression" : ""
						}
,
						"valueof" : 						{
							"parameter_initial" : [ "" ],
							"parameter_invisible" : 1,
							"parameter_longname" : "Drop B",
							"parameter_order" : 3,
							"parameter_shortname" : "live.drop",
							"parameter_type" : 4
						}

					}
,
					"textcolor" : [ 0.0, 0.019608, 0.078431, 0.0 ],
					"varname" : "Drop B"
				}

			}
, 			{
				"box" : 				{
					"id" : "obj-9",
					"maxclass" : "newobj",
					"numinlets" : 1,
					"numoutlets" : 4,
					"outlettype" : [ "", "", "", "" ],
					"patching_rect" : [ 614.5, 135.5, 94.0, 22.0 ],
					"saved_object_attributes" : 					{
						"mode" : 1
					}
,
					"text" : "hover @mode 1"
				}

			}
, 			{
				"box" : 				{
					"id" : "obj-10",
					"maxclass" : "newobj",
					"numinlets" : 1,
					"numoutlets" : 0,
					"patching_rect" : [ 664.5, 214.026916999999997, 95.0, 22.0 ],
					"text" : "s #1hover_2"
				}

			}
, 			{
				"box" : 				{
					"id" : "obj-11",
					"maxclass" : "newobj",
					"numinlets" : 1,
					"numoutlets" : 0,
					"patching_rect" : [ 690.0, 174.5, 101.0, 22.0 ],
					"text" : "s #1hover_13"
				}

			}
, 			{
				"box" : 				{
					"id" : "obj-17",
					"maxclass" : "newobj",
					"numinlets" : 1,
					"numoutlets" : 0,
					"patching_rect" : [ 614.5, 253.5, 95.0, 22.0 ],
					"text" : "s #1hover_0"
				}

			}
, 			{
				"box" : 				{
					"comment" : "From Drop A",
					"id" : "obj-5",
					"index" : 0,
					"maxclass" : "outlet",
					"numinlets" : 1,
					"numoutlets" : 0,
					"patching_rect" : [ 338.0, 249.5, 30.0, 30.0 ]
				}

			}
, 			{
				"box" : 				{
					"comment" : "From Drop B",
					"id" : "obj-6",
					"index" : 0,
					"maxclass" : "outlet",
					"numinlets" : 1,
					"numoutlets" : 0,
					"patching_rect" : [ 452.0, 249.5, 30.0, 30.0 ]
				}

			}
, 			{
				"box" : 				{
					"comment" : "To thispatcher",
					"id" : "obj-4",
					"index" : 0,
					"maxclass" : "inlet",
					"numinlets" : 0,
					"numoutlets" : 1,
					"outlettype" : [ "" ],
					"patching_rect" : [ 529.0, 159.0, 30.0, 30.0 ]
				}

			}
, 			{
				"box" : 				{
					"fontname" : "Arial",
					"fontsize" : 12.0,
					"id" : "obj-1",
					"maxclass" : "newobj",
					"numinlets" : 1,
					"numoutlets" : 2,
					"outlettype" : [ "", "" ],
					"patching_rect" : [ 529.0, 253.5, 69.0, 22.0 ],
					"save" : [ "#N", "thispatcher", ";", "#Q", "end", ";" ],
					"text" : "thispatcher"
				}

			}
, 			{
				"box" : 				{
					"comment" : "Control In",
					"id" : "obj-2",
					"index" : 0,
					"maxclass" : "inlet",
					"numinlets" : 0,
					"numoutlets" : 1,
					"outlettype" : [ "" ],
					"patching_rect" : [ 110.0, 37.0, 30.0, 30.0 ]
				}

			}
, 			{
				"box" : 				{
					"fontname" : "Arial",
					"fontsize" : 12.0,
					"id" : "obj-16",
					"maxclass" : "newobj",
					"numinlets" : 11,
					"numoutlets" : 11,
					"outlettype" : [ "", "", "", "", "", "", "", "", "", "", "" ],
					"patching_rect" : [ 110.0, 91.5, 1159.0, 22.0 ],
					"text" : "route A B timeA timeB nameA nameB displayA1 displayB1 displayA2 displayB2"
				}

			}
, 			{
				"box" : 				{
					"fontname" : "Arial",
					"fontsize" : 12.0,
					"id" : "obj-82",
					"maxclass" : "newobj",
					"numinlets" : 2,
					"numoutlets" : 1,
					"outlettype" : [ "" ],
					"patching_rect" : [ 224.0, 207.5, 87.0, 22.0 ],
					"text" : "hirt_filter_type"
				}

			}
, 			{
				"box" : 				{
					"fontname" : "Arial",
					"fontsize" : 12.0,
					"id" : "obj-74",
					"maxclass" : "newobj",
					"numinlets" : 2,
					"numoutlets" : 1,
					"outlettype" : [ "" ],
					"patching_rect" : [ 110.0, 207.5, 87.0, 22.0 ],
					"text" : "hirt_filter_type"
				}

			}
, 			{
				"box" : 				{
					"comment" : "From Drop A",
					"id" : "obj-112",
					"index" : 0,
					"maxclass" : "outlet",
					"numinlets" : 1,
					"numoutlets" : 0,
					"patching_rect" : [ 110.0, 249.5, 30.0, 30.0 ]
				}

			}
, 			{
				"box" : 				{
					"comment" : "From Drop B",
					"id" : "obj-113",
					"index" : 0,
					"maxclass" : "outlet",
					"numinlets" : 1,
					"numoutlets" : 0,
					"patching_rect" : [ 224.0, 249.5, 30.0, 30.0 ]
				}

			}
, 			{
				"box" : 				{
					"bgcolor" : [ 1.0, 1.0, 1.0, 0.0 ],
					"fontsize" : 11.0,
					"frozen_box_attributes" : [ "thinmode", "thinthresh", "thinto", "bgcolor", "gridcolor", "gridorigincolor" ],
					"gridcolor" : [ 0.501961, 0.501961, 0.501961, 0.0 ],
					"gridorigincolor" : [ 0.0, 0.0, 0.0, 0.0 ],
					"id" : "obj-3",
					"ignoreclick" : 1,
					"margins" : [ 0.0, 0.0, 0.0, 0.0 ],
					"maxclass" : "plot~",
					"numinlets" : 2,
					"numoutlets" : 1,
					"numplots" : 2,
					"outlettype" : [ "" ],
					"patching_rect" : [ 794.0, 135.5, 247.0, 77.0 ],
					"presentation" : 1,
					"presentation_rect" : [ 1.0, 1.0, 358.0, 150.0 ],
					"subplots" : [ 						{
							"color" : [ 0.0, 0.0, 1.0, 0.0 ],
							"thickness" : 1.0,
							"point_style" : "none",
							"line_style" : "origin",
							"number_style" : "none",
							"filter" : "none",
							"domain_start" : 0.0,
							"domain_end" : 1.0,
							"domain_style" : "linear",
							"domain_markers" : [  ],
							"domain_labels" : [  ],
							"range_start" : -1.0,
							"range_end" : 1.0,
							"range_style" : "linear",
							"range_markers" : [  ],
							"range_labels" : [  ],
							"origin_x" : 0.0,
							"origin_y" : 0.0
						}
, 						{
							"color" : [ 1.0, 0.0, 0.0, 0.0 ],
							"thickness" : 1.0,
							"point_style" : "none",
							"line_style" : "origin",
							"number_style" : "none",
							"filter" : "none",
							"domain_start" : 0.0,
							"domain_end" : 1.0,
							"domain_style" : "linear",
							"domain_markers" : [  ],
							"domain_labels" : [  ],
							"range_start" : -1.0,
							"range_end" : 1.0,
							"range_style" : "linear",
							"range_markers" : [  ],
							"range_labels" : [  ],
							"origin_x" : 0.0,
							"origin_y" : 0.0
						}
 ],
					"thinmode" : "sample",
					"thinthresh" : 10,
					"thinto" : 0.200000002980232
				}

			}
, 			{
				"box" : 				{
					"bgcolor" : [ 1.0, 1.0, 1.0, 0.0 ],
					"fontsize" : 11.0,
					"frozen_box_attributes" : [ "thinmode", "thinthresh", "thinto", "bgcolor", "gridcolor", "gridorigincolor" ],
					"gridcolor" : [ 0.501961, 0.501961, 0.501961, 0.0 ],
					"gridorigincolor" : [ 0.0, 0.0, 0.0, 0.0 ],
					"id" : "obj-8",
					"ignoreclick" : 1,
					"margins" : [ 0.0, 0.0, 0.0, 0.0 ],
					"maxclass" : "plot~",
					"numinlets" : 2,
					"numoutlets" : 1,
					"numplots" : 2,
					"outlettype" : [ "" ],
					"patching_rect" : [ 908.0, 135.5, 247.0, 77.0 ],
					"presentation" : 1,
					"presentation_rect" : [ 362.0, 1.0, 358.0, 150.0 ],
					"subplots" : [ 						{
							"color" : [ 0.0, 0.0, 1.0, 0.0 ],
							"thickness" : 1.0,
							"point_style" : "none",
							"line_style" : "origin",
							"number_style" : "none",
							"filter" : "none",
							"domain_start" : 0.0,
							"domain_end" : 1.0,
							"domain_style" : "linear",
							"domain_markers" : [  ],
							"domain_labels" : [  ],
							"range_start" : -1.0,
							"range_end" : 1.0,
							"range_style" : "linear",
							"range_markers" : [  ],
							"range_labels" : [  ],
							"origin_x" : 0.0,
							"origin_y" : 0.0
						}
, 						{
							"color" : [ 1.0, 0.0, 0.0, 0.0 ],
							"thickness" : 1.0,
							"point_style" : "none",
							"line_style" : "origin",
							"number_style" : "none",
							"filter" : "none",
							"domain_start" : 0.0,
							"domain_end" : 1.0,
							"domain_style" : "linear",
							"domain_markers" : [  ],
							"domain_labels" : [  ],
							"range_start" : -1.0,
							"range_end" : 1.0,
							"range_style" : "linear",
							"range_markers" : [  ],
							"range_labels" : [  ],
							"origin_x" : 0.0,
							"origin_y" : 0.0
						}
 ],
					"thinmode" : "sample",
					"thinthresh" : 10,
					"thinto" : 0.200000002980232
				}

			}
, 			{
				"box" : 				{
					"angle" : 270.0,
					"background" : 1,
					"border" : 1,
					"bordercolor" : [ 0.0, 0.0, 0.0, 0.0 ],
					"grad1" : [ 0.298039, 0.247059, 0.329412, 0.66 ],
					"grad2" : [ 0.298039, 0.247059, 0.329412, 0.33 ],
					"hidden" : 1,
					"id" : "obj-7",
					"maxclass" : "panel",
					"mode" : 1,
					"numinlets" : 1,
					"numoutlets" : 0,
					"patching_rect" : [ 0.0, 52.0, 70.0, 50.0 ],
					"presentation" : 1,
					"presentation_rect" : [ 361.0, 0.0, 360.0, 152.0 ],
					"proportion" : 0.39,
					"rounded" : 0
				}

			}
, 			{
				"box" : 				{
					"angle" : 270.0,
					"background" : 1,
					"border" : 1,
					"bordercolor" : [ 0.0, 0.0, 0.0, 0.0 ],
					"grad1" : [ 0.298039, 0.247059, 0.329412, 0.66 ],
					"grad2" : [ 0.298039, 0.247059, 0.329412, 0.33 ],
					"hidden" : 1,
					"id" : "obj-75",
					"maxclass" : "panel",
					"mode" : 1,
					"numinlets" : 1,
					"numoutlets" : 0,
					"patching_rect" : [ 0.0, 0.0, 70.0, 50.0 ],
					"presentation" : 1,
					"presentation_rect" : [ 0.0, 0.0, 360.0, 152.0 ],
					"proportion" : 0.39,
					"rounded" : 0
				}

			}
 ],
		"lines" : [ 			{
				"patchline" : 				{
					"destination" : [ "obj-21", 0 ],
					"midpoints" : [ 312.0, 442.5, 102.0, 442.5 ],
					"source" : [ "obj-13", 1 ]
				}

			}
, 			{
				"patchline" : 				{
					"destination" : [ "obj-31", 0 ],
					"midpoints" : [ 414.5, 330.0, 206.0, 330.0 ],
					"source" : [ "obj-14", 1 ]
				}

			}
, 			{
				"patchline" : 				{
					"destination" : [ "obj-21", 0 ],
					"midpoints" : [ 39.5, 442.25, 102.0, 442.25 ],
					"source" : [ "obj-15", 0 ]
				}

			}
, 			{
				"patchline" : 				{
					"destination" : [ "obj-3", 1 ],
					"source" : [ "obj-16", 8 ]
				}

			}
, 			{
				"patchline" : 				{
					"destination" : [ "obj-3", 0 ],
					"source" : [ "obj-16", 6 ]
				}

			}
, 			{
				"patchline" : 				{
					"destination" : [ "obj-35", 0 ],
					"source" : [ "obj-16", 0 ]
				}

			}
, 			{
				"patchline" : 				{
					"destination" : [ "obj-5", 0 ],
					"source" : [ "obj-16", 2 ]
				}

			}
, 			{
				"patchline" : 				{
					"destination" : [ "obj-6", 0 ],
					"source" : [ "obj-16", 3 ]
				}

			}
, 			{
				"patchline" : 				{
					"destination" : [ "obj-65", 0 ],
					"source" : [ "obj-16", 1 ]
				}

			}
, 			{
				"patchline" : 				{
					"destination" : [ "obj-8", 1 ],
					"source" : [ "obj-16", 9 ]
				}

			}
, 			{
				"patchline" : 				{
					"destination" : [ "obj-8", 0 ],
					"source" : [ "obj-16", 7 ]
				}

			}
, 			{
				"patchline" : 				{
					"destination" : [ "obj-15", 0 ],
					"midpoints" : [ 39.5, 283.5, 39.5, 283.5 ],
					"source" : [ "obj-18", 0 ]
				}

			}
, 			{
				"patchline" : 				{
					"destination" : [ "obj-23", 0 ],
					"midpoints" : [ 151.0, 581.5, 151.0, 581.5 ],
					"source" : [ "obj-19", 1 ]
				}

			}
, 			{
				"patchline" : 				{
					"destination" : [ "obj-16", 0 ],
					"source" : [ "obj-2", 0 ]
				}

			}
, 			{
				"patchline" : 				{
					"destination" : [ "obj-19", 0 ],
					"midpoints" : [ 102.0, 542.25, 102.0, 542.25 ],
					"source" : [ "obj-20", 0 ]
				}

			}
, 			{
				"patchline" : 				{
					"destination" : [ "obj-20", 0 ],
					"midpoints" : [ 102.0, 503.0, 102.0, 503.0 ],
					"source" : [ "obj-21", 0 ]
				}

			}
, 			{
				"patchline" : 				{
					"destination" : [ "obj-31", 0 ],
					"midpoints" : [ 206.5, 330.0, 206.0, 330.0 ],
					"source" : [ "obj-22", 0 ]
				}

			}
, 			{
				"patchline" : 				{
					"destination" : [ "obj-35", 0 ],
					"midpoints" : [ 151.0, 622.5, 23.25, 622.5, 23.25, 126.5, 119.5, 126.5 ],
					"source" : [ "obj-23", 0 ]
				}

			}
, 			{
				"patchline" : 				{
					"destination" : [ "obj-31", 0 ],
					"midpoints" : [ 157.5, 330.0, 206.0, 330.0 ],
					"source" : [ "obj-24", 0 ]
				}

			}
, 			{
				"patchline" : 				{
					"destination" : [ "obj-24", 0 ],
					"midpoints" : [ 157.5, 283.5, 157.5, 283.5 ],
					"source" : [ "obj-25", 0 ]
				}

			}
, 			{
				"patchline" : 				{
					"destination" : [ "obj-21", 0 ],
					"hidden" : 1,
					"midpoints" : [ 803.5, 442.75, 102.0, 442.75 ],
					"order" : 1,
					"source" : [ "obj-26", 0 ]
				}

			}
, 			{
				"patchline" : 				{
					"destination" : [ "obj-31", 0 ],
					"hidden" : 1,
					"midpoints" : [ 803.5, 330.5, 206.0, 330.5 ],
					"order" : 0,
					"source" : [ "obj-26", 0 ]
				}

			}
, 			{
				"patchline" : 				{
					"destination" : [ "obj-32", 0 ],
					"midpoints" : [ 255.0, 581.5, 255.0, 581.5 ],
					"source" : [ "obj-27", 1 ]
				}

			}
, 			{
				"patchline" : 				{
					"destination" : [ "obj-21", 0 ],
					"midpoints" : [ 102.5, 442.5, 102.0, 442.5 ],
					"source" : [ "obj-29", 0 ]
				}

			}
, 			{
				"patchline" : 				{
					"destination" : [ "obj-27", 0 ],
					"midpoints" : [ 206.0, 542.25, 206.0, 542.25 ],
					"source" : [ "obj-30", 0 ]
				}

			}
, 			{
				"patchline" : 				{
					"destination" : [ "obj-30", 0 ],
					"midpoints" : [ 206.0, 446.75, 206.0, 446.75 ],
					"source" : [ "obj-31", 0 ]
				}

			}
, 			{
				"patchline" : 				{
					"destination" : [ "obj-65", 0 ],
					"midpoints" : [ 255.0, 628.5, 14.25, 628.5, 14.25, 120.5, 233.5, 120.5 ],
					"source" : [ "obj-32", 0 ]
				}

			}
, 			{
				"patchline" : 				{
					"destination" : [ "obj-18", 0 ],
					"midpoints" : [ 119.5, 200.0, 39.5, 200.0 ],
					"order" : 1,
					"source" : [ "obj-35", 0 ]
				}

			}
, 			{
				"patchline" : 				{
					"destination" : [ "obj-74", 1 ],
					"source" : [ "obj-35", 1 ]
				}

			}
, 			{
				"patchline" : 				{
					"destination" : [ "obj-74", 0 ],
					"order" : 0,
					"source" : [ "obj-35", 0 ]
				}

			}
, 			{
				"patchline" : 				{
					"destination" : [ "obj-1", 0 ],
					"source" : [ "obj-4", 0 ]
				}

			}
, 			{
				"patchline" : 				{
					"destination" : [ "obj-25", 0 ],
					"midpoints" : [ 233.5, 200.0, 157.5, 200.0 ],
					"order" : 1,
					"source" : [ "obj-65", 0 ]
				}

			}
, 			{
				"patchline" : 				{
					"destination" : [ "obj-82", 1 ],
					"source" : [ "obj-65", 1 ]
				}

			}
, 			{
				"patchline" : 				{
					"destination" : [ "obj-82", 0 ],
					"order" : 0,
					"source" : [ "obj-65", 0 ]
				}

			}
, 			{
				"patchline" : 				{
					"destination" : [ "obj-112", 0 ],
					"order" : 0,
					"source" : [ "obj-74", 0 ]
				}

			}
, 			{
				"patchline" : 				{
					"destination" : [ "obj-29", 0 ],
					"midpoints" : [ 119.5, 240.75, 102.5, 240.75 ],
					"order" : 1,
					"source" : [ "obj-74", 0 ]
				}

			}
, 			{
				"patchline" : 				{
					"destination" : [ "obj-113", 0 ],
					"order" : 0,
					"source" : [ "obj-82", 0 ]
				}

			}
, 			{
				"patchline" : 				{
					"destination" : [ "obj-22", 0 ],
					"midpoints" : [ 233.5, 241.5, 206.5, 241.5 ],
					"order" : 1,
					"source" : [ "obj-82", 0 ]
				}

			}
, 			{
				"patchline" : 				{
					"destination" : [ "obj-10", 0 ],
					"source" : [ "obj-9", 2 ]
				}

			}
, 			{
				"patchline" : 				{
					"destination" : [ "obj-11", 0 ],
					"source" : [ "obj-9", 3 ]
				}

			}
, 			{
				"patchline" : 				{
					"destination" : [ "obj-11", 0 ],
					"midpoints" : [ 649.0, 165.5, 699.5, 165.5 ],
					"source" : [ "obj-9", 1 ]
				}

			}
, 			{
				"patchline" : 				{
					"destination" : [ "obj-17", 0 ],
					"source" : [ "obj-9", 0 ]
				}

			}
 ],
		"parameters" : 		{
			"obj-35" : [ "Drop A", "live.drop", 3 ],
			"obj-65" : [ "Drop B", "live.drop", 3 ],
			"parameterbanks" : 			{

			}
,
			"inherited_shortname" : 1
		}
,
		"dependency_cache" : [ 			{
				"name" : "hirt_filter_type.maxpat",
				"bootpath" : "~/Documents/Max 8/Packages/HISSTools Impulse Response Toolbox (HIRT)/patchers/HIRT_support",
				"patcherrelativepath" : "../../HIRT_support",
				"type" : "JSON",
				"implicit" : 1
			}
 ],
		"autosave" : 0,
		"styles" : [ 			{
				"name" : "max6box",
				"default" : 				{
					"accentcolor" : [ 0.8, 0.839216, 0.709804, 1.0 ],
					"bgcolor" : [ 1.0, 1.0, 1.0, 0.5 ],
					"textcolor_inverse" : [ 0.0, 0.0, 0.0, 1.0 ]
				}
,
				"parentstyle" : "",
				"multi" : 0
			}
, 			{
				"name" : "max6inlet",
				"default" : 				{
					"color" : [ 0.423529, 0.372549, 0.27451, 1.0 ]
				}
,
				"parentstyle" : "",
				"multi" : 0
			}
, 			{
				"name" : "max6message",
				"default" : 				{
					"textcolor_inverse" : [ 0.0, 0.0, 0.0, 1.0 ],
					"bgfillcolor" : 					{
						"type" : "gradient",
						"color1" : [ 0.866667, 0.866667, 0.866667, 1.0 ],
						"color2" : [ 0.788235, 0.788235, 0.788235, 1.0 ],
						"color" : [ 0.290196, 0.309804, 0.301961, 1.0 ],
						"angle" : 270.0,
						"proportion" : 0.39,
						"autogradient" : 0
					}

				}
,
				"parentstyle" : "max6box",
				"multi" : 0
			}
, 			{
				"name" : "max6outlet",
				"default" : 				{
					"color" : [ 0.0, 0.454902, 0.498039, 1.0 ]
				}
,
				"parentstyle" : "",
				"multi" : 0
			}
 ]
	}

}
